<svg width="32" height="32" viewBox="0 0 32 32" fill="none" xmlns="http://www.w3.org/2000/svg">
<path d="M25.2632 32H6.73684C3.03158 32 0 28.9684 0 25.2632V6.73684C0 3.03158 3.03158 0 6.73684 0H25.2632C28.9684 0 32 3.03158 32 6.73684V25.2632C32 28.9684 28.9684 32 25.2632 32Z" fill="black"/>
<path d="M17.0427 15.2627C17.0427 15.8007 16.5983 16.2451 16.0603 16.2451C15.5223 16.2451 15.0779 15.8007 15.0779 15.2627C15.0779 14.7247 15.5223 14.2803 16.0603 14.2803C16.5983 14.2803 17.0427 14.7247 17.0427 15.2627Z" fill="white"/>
<path d="M16.3878 22.8647V20.5022C16.2708 20.5022 16.1539 20.5256 16.0135 20.5256C13.23 20.5256 10.9845 18.2801 10.9845 15.4966C10.9845 12.713 13.23 10.4675 16.0135 10.4675C18.6333 10.4675 20.7853 12.4791 21.0192 15.0287C21.9782 15.5667 22.6566 16.5959 22.6566 17.7655V23.005C22.6566 23.1454 22.68 23.239 22.8203 23.3793C22.9606 23.4963 23.0308 23.5196 23.1712 23.5196C23.2647 23.5196 23.3583 23.5196 23.5454 23.3559C23.6858 23.1922 23.7091 23.122 23.7091 23.005V17.7655C23.7091 16.0346 25.1126 14.6311 26.8435 14.6311C27.3114 14.6311 27.7558 14.7481 28.1768 14.9352C27.826 8.54946 22.5162 3.47363 16.0369 3.47363C9.32374 3.47363 3.87366 8.92372 3.87366 15.6369C3.87366 22.3501 9.32374 27.8002 16.0369 27.8002C16.2474 27.8002 16.4814 27.8002 16.6919 27.7768C16.7387 27.7768 16.762 27.7768 16.8088 27.7768C16.996 27.7534 17.1831 27.7534 17.3702 27.73C17.3936 27.73 17.417 27.73 17.4404 27.73C17.6977 27.7066 17.9316 27.6598 18.1889 27.6131C16.996 26.3266 16.3878 24.6892 16.3878 22.8647ZM5.86188 10.4675C7.54603 6.84192 10.236 5.81272 10.236 5.81272L12.7388 10.2804C12.7388 10.2804 11.2184 11.0523 10.7038 12.5025L5.86188 10.4675Z" fill="white"/>
<path d="M23.1712 27.9874C21.7443 27.9874 20.528 27.4962 19.569 26.5138C18.6333 25.5314 18.1655 24.315 18.1655 22.8648V17.789C18.1655 17.0405 18.7737 16.4557 19.4988 16.4557C20.2473 16.4557 20.8321 17.0639 20.8321 17.789V23.0285C20.8321 23.6601 21.066 24.1981 21.5338 24.6659C22.0016 25.1103 22.5162 25.3442 23.1478 25.3442C23.756 25.3442 24.2939 25.1103 24.7618 24.6659C25.2296 24.1981 25.4635 23.6601 25.4635 23.0285V17.789C25.4635 17.0405 26.0717 16.4557 26.7968 16.4557C27.5453 16.4557 28.1301 17.0639 28.1301 17.789V22.8648C28.1301 24.315 27.6388 25.5548 26.7032 26.5138C25.8144 27.4962 24.598 27.9874 23.1712 27.9874Z" fill="white"/>
</svg>
