<?xml version="1.0" encoding="utf-8"?>
<!-- Generator: Adobe Illustrator 25.0.0, SVG Export Plug-In . SVG Version: 6.00 Build 0)  -->
<svg version="1.1" id="Layer_1" xmlns="http://www.w3.org/2000/svg" xmlns:xlink="http://www.w3.org/1999/xlink" x="0px" y="0px"
	 viewBox="0 0 133 40" style="enable-background:new 0 0 133 40;" xml:space="preserve">
<style type="text/css">
	.st0{fill:#FFFFFF;}
</style>
<g>
	<path class="st0" d="M60.8,21.4c-0.2,0-0.4,0-0.6,0c-1.9,0-3.6,0.7-4.9,2.2c-1.4-1.5-3-2.2-4.9-2.2c-0.2,0-0.4,0-0.6,0
		c-1.9,0.2-3.6,0.9-4.8,2.2c-1.3,1.4-2,3.3-2,5.5v8.6c0,1.2,1,2.2,2.2,2.2c1.2,0,2.2-1,2.2-2.2v-8.8c0-1,0.2-1.8,0.7-2.4
		c0.5-0.6,1.1-0.9,1.9-0.9c0.9,0,1.6,0.3,2.2,0.9c0.6,0.5,0.9,1.1,0.9,1.9v9.3c0,1.2,1,2.2,2.2,2.2c1.2,0,2.2-1,2.2-2.2v-9.3
		c0-0.8,0.3-1.4,0.9-1.9c0.7-0.6,1.4-0.9,2.3-0.9c0.8,0,1.4,0.2,1.9,0.9c0.5,0.7,0.8,1.4,0.8,2.4v8.8c0,1.2,1,2.2,2.2,2.2
		c1.2,0,2.2-1,2.3-2.2v-8.6c0-2.2-0.7-4.1-2-5.5C64.4,22.3,62.8,21.6,60.8,21.4z"/>
	<path class="st0" d="M84.3,21.4c-1.2,0-2.2,1-2.2,2.2V32c0,1-0.4,1.9-1.1,2.6c-0.7,0.7-1.6,1.1-2.6,1.1c-1,0-1.8-0.3-2.6-1.1
		c-0.7-0.7-1.1-1.6-1.1-2.6v-8.4c0-1.2-1-2.2-2.2-2.2c-1.2,0-2.2,1-2.2,2.2v8.1c0,2.3,0.7,4.3,2.2,5.8c1.5,1.5,3.5,2.4,5.8,2.4
		c2.3,0,4.2-0.8,5.8-2.4c1.5-1.5,2.3-3.5,2.3-5.8v-8.1C86.5,22.4,85.6,21.4,84.3,21.4z"/>
	<path class="st0" d="M109.5,21.5c-1.1,0-2.1,1-2.1,2.1v14.2c0,1.1,1,2.1,2.1,2.1c1.2,0,2.2-1,2.1-2.1V23.7
		C111.6,22.5,110.6,21.5,109.5,21.5z"/>
	<path class="st0" d="M131.9,33.3c-0.3-0.4-0.7-0.6-1.2-0.6h-1.5c-0.5,0-0.9,0.3-1.2,0.7c-0.9,1.5-2.3,2.2-4.1,2.2h-0.1
		c-1.3,0-2.4-0.5-3.3-1.4c-1-1-1.4-2.2-1.4-3.6s0.5-2.5,1.5-3.6c1-1,2-1.4,3.2-1.4h0.1c1.8,0.1,3.1,0.8,4,2.3
		c0.3,0.5,0.8,0.7,1.3,0.7h1.3c0.6,0,1-0.2,1.3-0.7c0.3-0.4,0.3-1,0.1-1.5c-0.3-0.7-0.7-1.4-1.3-2c-0.5-0.6-1.1-1.1-1.9-1.6
		c-1.5-1-3.1-1.4-4.8-1.4h-0.1c-2.4,0.1-4.5,1-6.4,2.8c-1.7,1.8-2.6,4-2.6,6.5c0.1,2.5,1,4.7,2.7,6.4c1.8,1.8,3.9,2.7,6.3,2.7
		l0.1-0.1c3.6,0,6.3-1.7,8-5v-0.1C132.2,34.3,132.2,33.7,131.9,33.3z"/>
	<path class="st0" d="M99.1,28.6L96.3,28c-0.8-0.2-1.8-0.6-1.7-1.2v-0.1c0-0.2,0.1-0.3,0.3-0.5c0.4-0.6,1.5-1,2.7-1
		c1.6,0,2.9,0.7,2.9,1.5c0,0.1,0.2,1.1,1.3,1.1h0.2c0.5,0,1-0.2,1.3-0.5c0.3-0.3,0.4-0.7,0.4-1.1c-0.1-1.4-1-2.6-2.5-3.6
		c-1.3-0.8-2.6-1.2-4.1-1.2c-0.1,0-0.2,0-0.3,0c-1.8,0.1-3.3,0.6-4.7,1.6c-1.4,1.1-2.1,2.5-1.9,4c0.1,1.7,1,4,4.7,4.9l2.4,0.6
		c1.9,0.5,2.9,1.2,2.9,1.6c0,0.1,0,0.2-0.1,0.3c0,0.1,0,0.1,0,0.1c0,1.1-1.4,2.1-3.3,2.1c-1.8,0-3-1-3.3-2.1c0-0.1-0.1-0.2-0.1-0.3
		c0-0.1,0-0.1,0-0.1c0-0.1,0-0.2-0.1-0.3c-0.2-0.8-1.2-1.1-1.2-1.1h-1c-0.5,0-1,0.2-1.4,0.6c-0.3,0.3-0.5,0.7-0.4,1.2
		c0.2,1.4,0.9,2.6,2.1,3.6c1.4,1.1,3,1.7,4.9,1.8c0.2,0,0.3,0,0.5,0c1.9,0,3.6-0.5,5-1.6c2.4-1.7,2.6-3.5,2.5-4.7
		C104.1,31.9,103,29.6,99.1,28.6z"/>
	<path class="st0" d="M18.1,19.1c0,0.9,0.7,1.6,1.6,1.6c0.9,0,1.6-0.7,1.6-1.6c0-0.9-0.7-1.6-1.6-1.6C18.9,17.5,18.1,18.2,18.1,19.1
		z"/>
	<path class="st0" d="M19.7,0C8.8,0,0,8.8,0,19.7s8.8,19.7,19.7,19.7c0.3,0,0.7,0,1.1,0c0.1,0,0.1,0,0.2,0c0.3,0,0.6,0,0.9-0.1
		c0,0,0.1,0,0.1,0c0.4,0,0.8-0.1,1.2-0.2c-1.9-2.1-2.9-4.7-2.9-7.7v-3.8c-0.2,0-0.4,0-0.6,0c-4.5,0-8.1-3.6-8.1-8.1
		c0-4.5,3.6-8.1,8.1-8.1c4.2,0,7.7,3.3,8.1,7.4c1.6,0.9,2.7,2.5,2.7,4.4v8.5c0,0.2,0,0.4,0.3,0.6c0.2,0.2,0.3,0.2,0.6,0.2
		c0.2,0,0.3,0,0.6-0.3c0.2-0.3,0.3-0.4,0.3-0.6v-8.5c0-2.8,2.3-5.1,5.1-5.1c0.8,0,1.5,0.2,2.2,0.5C38.8,8.2,30.2,0,19.7,0z
		 M11.1,14.6l-7.8-3.3c2.7-5.9,7.1-7.5,7.1-7.5l4.1,7.2C14.4,11,11.9,12.3,11.1,14.6z"/>
	<path class="st0" d="M37.1,21C35.9,21,35,22,35,23.2v8.5c0,1-0.4,1.9-1.1,2.7c-0.8,0.7-1.6,1.1-2.6,1.1c-1,0-1.9-0.4-2.6-1.1
		c-0.8-0.8-1.1-1.6-1.1-2.7v-8.5c0-1.2-0.9-2.2-2.2-2.2c-1.2,0-2.2,0.9-2.2,2.2v8.2c0,2.3,0.8,4.3,2.3,5.9c1.6,1.6,3.5,2.4,5.8,2.4
		s4.3-0.8,5.7-2.4c1.5-1.6,2.3-3.6,2.3-5.9v-8.2C39.3,22,38.3,21,37.1,21z"/>
</g>
</svg>
